<mxfile host="app.diagrams.net" modified="2022-08-28T10:54:13.897Z" agent="5.0 (X11; Linux x86_64) AppleWebKit/537.36 (KHTML, like Gecko) Chrome/104.0.0.0 Safari/537.36" etag="b-Xd31MFK-VGqrjV7Mof" version="20.2.6" type="github">
  <diagram id="MRuJ7Lssp6C1ro-huAiR" name="Page-1">
    <mxGraphModel dx="986" dy="557" grid="1" gridSize="10" guides="1" tooltips="1" connect="1" arrows="1" fold="1" page="1" pageScale="1" pageWidth="850" pageHeight="1100" math="0" shadow="0">
      <root>
        <mxCell id="0" />
        <mxCell id="1" parent="0" />
        <mxCell id="jPax02gpQRXkLka1oFDE-1" value="Encoder" style="rounded=1;whiteSpace=wrap;html=1;fillColor=#e1d5e7;strokeColor=#9673a6;" vertex="1" parent="1">
          <mxGeometry x="205" y="330" width="160" height="60" as="geometry" />
        </mxCell>
        <mxCell id="jPax02gpQRXkLka1oFDE-7" value="" style="edgeStyle=orthogonalEdgeStyle;rounded=0;orthogonalLoop=1;jettySize=auto;html=1;" edge="1" parent="1" source="jPax02gpQRXkLka1oFDE-2" target="jPax02gpQRXkLka1oFDE-4">
          <mxGeometry relative="1" as="geometry">
            <Array as="points">
              <mxPoint x="180" y="495" />
              <mxPoint x="210" y="495" />
            </Array>
          </mxGeometry>
        </mxCell>
        <mxCell id="jPax02gpQRXkLka1oFDE-2" value="Context" style="rounded=0;whiteSpace=wrap;html=1;fillColor=#d5e8d4;strokeColor=#82b366;" vertex="1" parent="1">
          <mxGeometry x="100" y="520" width="160" height="40" as="geometry" />
        </mxCell>
        <mxCell id="jPax02gpQRXkLka1oFDE-8" value="" style="edgeStyle=orthogonalEdgeStyle;rounded=0;orthogonalLoop=1;jettySize=auto;html=1;" edge="1" parent="1" source="jPax02gpQRXkLka1oFDE-3" target="jPax02gpQRXkLka1oFDE-4">
          <mxGeometry relative="1" as="geometry">
            <Array as="points">
              <mxPoint x="400" y="495" />
              <mxPoint x="360" y="495" />
            </Array>
          </mxGeometry>
        </mxCell>
        <mxCell id="jPax02gpQRXkLka1oFDE-3" value="Source" style="rounded=0;whiteSpace=wrap;html=1;fillColor=#d5e8d4;strokeColor=#82b366;" vertex="1" parent="1">
          <mxGeometry x="320" y="520" width="160" height="40" as="geometry" />
        </mxCell>
        <mxCell id="jPax02gpQRXkLka1oFDE-9" value="" style="edgeStyle=orthogonalEdgeStyle;rounded=0;orthogonalLoop=1;jettySize=auto;html=1;" edge="1" parent="1" source="jPax02gpQRXkLka1oFDE-4" target="jPax02gpQRXkLka1oFDE-1">
          <mxGeometry relative="1" as="geometry" />
        </mxCell>
        <mxCell id="jPax02gpQRXkLka1oFDE-4" value="Concatenated Input" style="rounded=0;whiteSpace=wrap;html=1;fillColor=#dae8fc;strokeColor=#6c8ebf;" vertex="1" parent="1">
          <mxGeometry x="170" y="430" width="230" height="40" as="geometry" />
        </mxCell>
      </root>
    </mxGraphModel>
  </diagram>
</mxfile>
